# xmcd
#
# Track frame offsets:
#	150
#	21155
#	34265
#	51939
#	68446
#	82851
#	101444
#	121136
#	136798
#	154000
#	175444
#
# Disc length: 2597 seconds
#
# Revision: 0
# Processed by: cddbd v1.5.2PL0 Copyright (c) Steve Scherf et al.
# Submitted via: audiograbber 1.83.01
#
DISCID=810a230b
DTITLE=Kenny Chesney - All I Want For Christmas Is A Real Good Tan
DYEAR=2003
DGENRE=Country
TTITLE0=All I Want For Christmas Is A Real Good Tan
TTITLE1=Jingle Bells
TTITLE2=I'll Be Home For Christmas
TTITLE3=Christmas In Dixie (ft. Randy Owen)
TTITLE4=Thank God For Kids
TTITLE5=Silver Bells
TTITLE6=Just A Kid
TTITLE7=The Angel At The Top Of My Tree
TTITLE8=Pretty Paper (w. Willie Nelson)
TTITLE9=Silent Night (w. The Grisgby Twins)
TTITLE10=O Little Town Of Bethlehem
EXTD=YEAR: 2003
EXTT0=
EXTT1=
EXTT2=
EXTT3=
EXTT4=
EXTT5=
EXTT6=
EXTT7=
EXTT8=
EXTT9=
EXTT10=
PLAYORDER=
